<svg xmlns="http://www.w3.org/2000/svg" viewBox="0 0 430.3 144.2" width="430" height="144" fill="none" role="img" aria-label="autoexp — local autonomous experimentation">
  <defs>
    <clipPath id="aClip"><rect x="-50.0" y="-68.00" width="276.60" height="91.00"/></clipPath>
    <clipPath id="eClip"><rect x="226.60" y="-68.00" width="226.10" height="91.00"/></clipPath>
  </defs>
  <g transform="translate(14.00 79.00)">
    <path d="M 22.41 1.41 Q 17.09 1.41 12.89 -0.44 Q 8.70 -2.30 6.25 -5.84 Q 3.80 -9.41 3.80 -14.50 Q 3.80 -19.59 6.25 -23.05 Q 8.70 -26.50 13.05 -28.25 Q 17.41 -30.00 23.00 -30.00 L 36.59 -30.00 L 36.59 -32.80 Q 36.59 -36.30 34.39 -38.55 Q 32.20 -40.80 27.41 -40.80 Q 22.70 -40.80 20.39 -38.64 Q 18.09 -36.50 17.41 -33.09 L 5.80 -37.00 Q 7.00 -40.80 9.64 -43.94 Q 12.30 -47.09 16.75 -49.05 Q 21.20 -51.00 27.59 -51.00 Q 37.41 -51.00 43.09 -46.09 Q 48.80 -41.20 48.80 -31.91 L 48.80 -13.41 Q 48.80 -10.41 51.59 -10.41 L 55.59 -10.41 L 55.59 -0.00 L 47.20 -0.00 Q 43.50 -0.00 41.09 -1.80 Q 38.70 -3.59 38.70 -6.59 L 38.70 -6.70 L 36.80 -6.70 Q 36.41 -5.50 35.00 -3.55 Q 33.59 -1.59 30.59 -0.09 Q 27.59 1.41 22.41 1.41 Z M 24.59 -8.80 Q 29.91 -8.80 33.25 -11.75 Q 36.59 -14.70 36.59 -19.59 L 36.59 -20.59 L 23.91 -20.59 Q 20.41 -20.59 18.41 -19.09 Q 16.41 -17.59 16.41 -14.91 Q 16.41 -12.20 18.50 -10.50 Q 20.59 -8.80 24.59 -8.80 Z M 83.71 0.80 Q 77.89 0.80 73.55 -1.84 Q 69.21 -4.50 66.80 -9.20 Q 64.39 -13.91 64.39 -20.00 L 64.39 -49.59 L 77.00 -49.59 L 77.00 -21.00 Q 77.00 -15.41 79.75 -12.59 Q 82.50 -9.80 87.60 -9.80 Q 93.39 -9.80 96.60 -13.64 Q 99.80 -17.50 99.80 -24.41 L 99.80 -49.59 L 112.39 -49.59 L 112.39 -0.00 L 100.00 -0.00 L 100.00 -6.50 L 98.21 -6.50 Q 97.00 -4.00 93.69 -1.59 Q 90.39 0.80 83.71 0.80 Z M 145.40 -0.00 Q 140.49 -0.00 137.45 -3.05 Q 134.40 -6.09 134.40 -11.20 L 134.40 -39.20 L 121.99 -39.20 L 121.99 -49.59 L 134.40 -49.59 L 134.40 -65.00 L 146.99 -65.00 L 146.99 -49.59 L 160.60 -49.59 L 160.60 -39.20 L 146.99 -39.20 L 146.99 -13.41 Q 146.99 -10.41 149.81 -10.41 L 159.40 -10.41 L 159.40 -0.00 L 145.40 -0.00 Z M 195.59 1.41 Q 188.20 1.41 182.30 -1.59 Q 176.41 -4.59 173.00 -10.30 Q 169.59 -16.00 169.59 -24.00 L 169.59 -25.59 Q 169.59 -33.59 173.00 -39.30 Q 176.41 -45.00 182.30 -48.00 Q 188.20 -51.00 195.59 -51.00 Q 203.00 -51.00 208.89 -48.00 Q 214.80 -45.00 218.19 -39.30 Q 221.59 -33.59 221.59 -25.59 L 221.59 -24.00 Q 221.59 -16.00 218.19 -10.30 Q 214.80 -4.59 208.89 -1.59 Q 203.00 1.41 195.59 1.41 Z M 195.59 -9.80 Q 201.41 -9.80 205.20 -13.55 Q 209.00 -17.30 209.00 -24.30 L 209.00 -25.30 Q 209.00 -32.30 205.25 -36.05 Q 201.50 -39.80 195.59 -39.80 Q 189.80 -39.80 186.00 -36.05 Q 182.20 -32.30 182.20 -25.30 L 182.20 -24.30 Q 182.20 -17.30 186.00 -13.55 Q 189.80 -9.80 195.59 -9.80 Z M 255.79 1.41 Q 248.40 1.41 242.75 -1.75 Q 237.11 -4.91 233.95 -10.66 Q 230.79 -16.41 230.79 -24.20 L 230.79 -25.41 Q 230.79 -33.20 233.89 -38.95 Q 237.00 -44.70 242.59 -47.84 Q 248.20 -51.00 255.61 -51.00 Q 262.90 -51.00 268.29 -47.75 Q 273.70 -44.50 276.70 -38.75 Q 279.70 -33.00 279.70 -25.41 L 279.70 -21.09 L 243.61 -21.09 Q 243.79 -16.00 247.39 -12.80 Q 251.00 -9.59 256.20 -9.59 Q 261.50 -9.59 264.00 -11.89 Q 266.50 -14.20 267.79 -17.00 L 278.11 -11.59 Q 276.70 -9.00 274.04 -5.95 Q 271.40 -2.91 267.00 -0.75 Q 262.61 1.41 255.79 1.41 Z M 243.70 -30.50 L 266.90 -30.50 Q 266.50 -34.80 263.45 -37.39 Q 260.40 -40.00 255.50 -40.00 Q 250.40 -40.00 247.40 -37.39 Q 244.40 -34.80 243.70 -30.50 Z M 286.49 -0.00 L 304.49 -25.00 L 286.70 -49.59 L 301.31 -49.59 L 312.60 -33.09 L 314.40 -33.09 L 325.70 -49.59 L 340.31 -49.59 L 322.49 -25.00 L 340.49 -0.00 L 325.70 -0.00 L 314.40 -16.70 L 312.60 -16.70 L 301.31 -0.00 L 286.49 -0.00 Z M 350.10 20.00 L 350.10 -49.59 L 362.51 -49.59 L 362.51 -43.59 L 364.30 -43.59 Q 366.01 -46.50 369.60 -48.75 Q 373.19 -51.00 379.90 -51.00 Q 385.90 -51.00 390.99 -48.05 Q 396.10 -45.09 399.19 -39.39 Q 402.30 -33.70 402.30 -25.59 L 402.30 -24.00 Q 402.30 -15.91 399.19 -10.20 Q 396.10 -4.50 390.99 -1.55 Q 385.90 1.41 379.90 1.41 Q 375.40 1.41 372.35 0.34 Q 369.30 -0.70 367.44 -2.34 Q 365.60 -4.00 364.51 -5.70 L 362.69 -5.70 L 362.69 20.00 L 350.10 20.00 Z M 376.10 -9.59 Q 382.01 -9.59 385.85 -13.34 Q 389.69 -17.09 389.69 -24.30 L 389.69 -25.30 Q 389.69 -32.50 385.79 -36.25 Q 381.90 -40.00 376.10 -40.00 Q 370.30 -40.00 366.40 -36.25 Q 362.51 -32.50 362.51 -25.30 L 362.51 -24.30 Q 362.51 -17.09 366.40 -13.34 Q 370.30 -9.59 376.10 -9.59 Z" fill="#161A21" clip-path="url(#aClip)"/>
    <path d="M 22.41 1.41 Q 17.09 1.41 12.89 -0.44 Q 8.70 -2.30 6.25 -5.84 Q 3.80 -9.41 3.80 -14.50 Q 3.80 -19.59 6.25 -23.05 Q 8.70 -26.50 13.05 -28.25 Q 17.41 -30.00 23.00 -30.00 L 36.59 -30.00 L 36.59 -32.80 Q 36.59 -36.30 34.39 -38.55 Q 32.20 -40.80 27.41 -40.80 Q 22.70 -40.80 20.39 -38.64 Q 18.09 -36.50 17.41 -33.09 L 5.80 -37.00 Q 7.00 -40.80 9.64 -43.94 Q 12.30 -47.09 16.75 -49.05 Q 21.20 -51.00 27.59 -51.00 Q 37.41 -51.00 43.09 -46.09 Q 48.80 -41.20 48.80 -31.91 L 48.80 -13.41 Q 48.80 -10.41 51.59 -10.41 L 55.59 -10.41 L 55.59 -0.00 L 47.20 -0.00 Q 43.50 -0.00 41.09 -1.80 Q 38.70 -3.59 38.70 -6.59 L 38.70 -6.70 L 36.80 -6.70 Q 36.41 -5.50 35.00 -3.55 Q 33.59 -1.59 30.59 -0.09 Q 27.59 1.41 22.41 1.41 Z M 24.59 -8.80 Q 29.91 -8.80 33.25 -11.75 Q 36.59 -14.70 36.59 -19.59 L 36.59 -20.59 L 23.91 -20.59 Q 20.41 -20.59 18.41 -19.09 Q 16.41 -17.59 16.41 -14.91 Q 16.41 -12.20 18.50 -10.50 Q 20.59 -8.80 24.59 -8.80 Z M 83.71 0.80 Q 77.89 0.80 73.55 -1.84 Q 69.21 -4.50 66.80 -9.20 Q 64.39 -13.91 64.39 -20.00 L 64.39 -49.59 L 77.00 -49.59 L 77.00 -21.00 Q 77.00 -15.41 79.75 -12.59 Q 82.50 -9.80 87.60 -9.80 Q 93.39 -9.80 96.60 -13.64 Q 99.80 -17.50 99.80 -24.41 L 99.80 -49.59 L 112.39 -49.59 L 112.39 -0.00 L 100.00 -0.00 L 100.00 -6.50 L 98.21 -6.50 Q 97.00 -4.00 93.69 -1.59 Q 90.39 0.80 83.71 0.80 Z M 145.40 -0.00 Q 140.49 -0.00 137.45 -3.05 Q 134.40 -6.09 134.40 -11.20 L 134.40 -39.20 L 121.99 -39.20 L 121.99 -49.59 L 134.40 -49.59 L 134.40 -65.00 L 146.99 -65.00 L 146.99 -49.59 L 160.60 -49.59 L 160.60 -39.20 L 146.99 -39.20 L 146.99 -13.41 Q 146.99 -10.41 149.81 -10.41 L 159.40 -10.41 L 159.40 -0.00 L 145.40 -0.00 Z M 195.59 1.41 Q 188.20 1.41 182.30 -1.59 Q 176.41 -4.59 173.00 -10.30 Q 169.59 -16.00 169.59 -24.00 L 169.59 -25.59 Q 169.59 -33.59 173.00 -39.30 Q 176.41 -45.00 182.30 -48.00 Q 188.20 -51.00 195.59 -51.00 Q 203.00 -51.00 208.89 -48.00 Q 214.80 -45.00 218.19 -39.30 Q 221.59 -33.59 221.59 -25.59 L 221.59 -24.00 Q 221.59 -16.00 218.19 -10.30 Q 214.80 -4.59 208.89 -1.59 Q 203.00 1.41 195.59 1.41 Z M 195.59 -9.80 Q 201.41 -9.80 205.20 -13.55 Q 209.00 -17.30 209.00 -24.30 L 209.00 -25.30 Q 209.00 -32.30 205.25 -36.05 Q 201.50 -39.80 195.59 -39.80 Q 189.80 -39.80 186.00 -36.05 Q 182.20 -32.30 182.20 -25.30 L 182.20 -24.30 Q 182.20 -17.30 186.00 -13.55 Q 189.80 -9.80 195.59 -9.80 Z M 255.79 1.41 Q 248.40 1.41 242.75 -1.75 Q 237.11 -4.91 233.95 -10.66 Q 230.79 -16.41 230.79 -24.20 L 230.79 -25.41 Q 230.79 -33.20 233.89 -38.95 Q 237.00 -44.70 242.59 -47.84 Q 248.20 -51.00 255.61 -51.00 Q 262.90 -51.00 268.29 -47.75 Q 273.70 -44.50 276.70 -38.75 Q 279.70 -33.00 279.70 -25.41 L 279.70 -21.09 L 243.61 -21.09 Q 243.79 -16.00 247.39 -12.80 Q 251.00 -9.59 256.20 -9.59 Q 261.50 -9.59 264.00 -11.89 Q 266.50 -14.20 267.79 -17.00 L 278.11 -11.59 Q 276.70 -9.00 274.04 -5.95 Q 271.40 -2.91 267.00 -0.75 Q 262.61 1.41 255.79 1.41 Z M 243.70 -30.50 L 266.90 -30.50 Q 266.50 -34.80 263.45 -37.39 Q 260.40 -40.00 255.50 -40.00 Q 250.40 -40.00 247.40 -37.39 Q 244.40 -34.80 243.70 -30.50 Z M 286.49 -0.00 L 304.49 -25.00 L 286.70 -49.59 L 301.31 -49.59 L 312.60 -33.09 L 314.40 -33.09 L 325.70 -49.59 L 340.31 -49.59 L 322.49 -25.00 L 340.49 -0.00 L 325.70 -0.00 L 314.40 -16.70 L 312.60 -16.70 L 301.31 -0.00 L 286.49 -0.00 Z M 350.10 20.00 L 350.10 -49.59 L 362.51 -49.59 L 362.51 -43.59 L 364.30 -43.59 Q 366.01 -46.50 369.60 -48.75 Q 373.19 -51.00 379.90 -51.00 Q 385.90 -51.00 390.99 -48.05 Q 396.10 -45.09 399.19 -39.39 Q 402.30 -33.70 402.30 -25.59 L 402.30 -24.00 Q 402.30 -15.91 399.19 -10.20 Q 396.10 -4.50 390.99 -1.55 Q 385.90 1.41 379.90 1.41 Q 375.40 1.41 372.35 0.34 Q 369.30 -0.70 367.44 -2.34 Q 365.60 -4.00 364.51 -5.70 L 362.69 -5.70 L 362.69 20.00 L 350.10 20.00 Z M 376.10 -9.59 Q 382.01 -9.59 385.85 -13.34 Q 389.69 -17.09 389.69 -24.30 L 389.69 -25.30 Q 389.69 -32.50 385.79 -36.25 Q 381.90 -40.00 376.10 -40.00 Q 370.30 -40.00 366.40 -36.25 Q 362.51 -32.50 362.51 -25.30 L 362.51 -24.30 Q 362.51 -17.09 366.40 -13.34 Q 370.30 -9.59 376.10 -9.59 Z" fill="#3D6FC0" clip-path="url(#eClip)"/>
  </g>
  <g transform="translate(14.00 130.10)">
    <path d="M 1.92 -0.00 L 1.92 -10.95 L 3.41 -10.95 L 3.41 -1.35 L 8.28 -1.35 L 8.28 -0.00 L 1.92 -0.00 Z M 17.19 0.15 Q 15.69 0.15 14.82 -0.72 Q 13.95 -1.59 13.95 -3.18 L 13.95 -7.79 Q 13.95 -9.36 14.82 -10.23 Q 15.69 -11.10 17.19 -11.10 Q 18.69 -11.10 19.56 -10.24 Q 20.43 -9.38 20.43 -7.79 L 20.43 -3.18 Q 20.43 -1.59 19.56 -0.72 Q 18.69 0.15 17.19 0.15 Z M 17.19 -1.17 Q 18.03 -1.17 18.48 -1.65 Q 18.94 -2.13 18.94 -3.03 L 18.94 -7.94 Q 18.94 -8.82 18.49 -9.30 Q 18.04 -9.78 17.19 -9.78 Q 16.33 -9.78 15.88 -9.30 Q 15.43 -8.82 15.43 -7.94 L 15.43 -3.03 Q 15.43 -2.13 15.89 -1.65 Q 16.35 -1.17 17.19 -1.17 Z M 29.99 0.15 Q 28.48 0.15 27.59 -0.70 Q 26.69 -1.54 26.69 -3.03 L 26.69 -7.94 Q 26.69 -9.41 27.59 -10.25 Q 28.48 -11.10 29.99 -11.10 Q 31.49 -11.10 32.39 -10.24 Q 33.28 -9.39 33.28 -7.94 L 31.79 -7.94 Q 31.79 -8.82 31.31 -9.30 Q 30.84 -9.78 29.99 -9.78 Q 29.14 -9.78 28.66 -9.30 Q 28.18 -8.82 28.18 -7.94 L 28.18 -3.03 Q 28.18 -2.13 28.66 -1.65 Q 29.14 -1.17 29.99 -1.17 Q 30.84 -1.17 31.31 -1.65 Q 31.79 -2.13 31.79 -3.03 L 33.28 -3.03 Q 33.28 -1.56 32.39 -0.71 Q 31.49 0.15 29.99 0.15 Z M 38.75 -0.00 L 41.59 -10.95 L 43.55 -10.95 L 46.37 -0.00 L 44.86 -0.00 L 44.17 -2.85 L 40.96 -2.85 L 40.27 -0.00 L 38.75 -0.00 Z M 41.24 -4.08 L 43.87 -4.08 L 43.07 -7.35 Q 42.86 -8.25 42.73 -8.88 Q 42.59 -9.51 42.56 -9.74 Q 42.53 -9.51 42.40 -8.88 Q 42.26 -8.25 42.05 -7.36 L 41.24 -4.08 Z M 52.67 -0.00 L 52.67 -10.95 L 54.15 -10.95 L 54.15 -1.35 L 59.03 -1.35 L 59.03 -0.00 L 52.67 -0.00 Z M 76.81 -0.00 L 79.65 -10.95 L 81.61 -10.95 L 84.43 -0.00 L 82.92 -0.00 L 82.23 -2.85 L 79.02 -2.85 L 78.33 -0.00 L 76.81 -0.00 Z M 79.30 -4.08 L 81.93 -4.08 L 81.13 -7.35 Q 80.92 -8.25 80.79 -8.88 Q 80.65 -9.51 80.62 -9.74 Q 80.59 -9.51 80.46 -8.88 Q 80.32 -8.25 80.11 -7.36 L 79.30 -4.08 Z M 93.31 0.15 Q 91.77 0.15 90.93 -0.71 Q 90.10 -1.56 90.10 -3.03 L 90.10 -10.95 L 91.59 -10.95 L 91.59 -3.03 Q 91.59 -2.16 92.01 -1.66 Q 92.44 -1.17 93.31 -1.17 Q 94.17 -1.17 94.61 -1.66 Q 95.05 -2.16 95.05 -3.03 L 95.05 -10.95 L 96.54 -10.95 L 96.54 -3.03 Q 96.54 -1.54 95.70 -0.70 Q 94.87 0.15 93.31 0.15 Z M 105.26 -0.00 L 105.26 -9.60 L 102.29 -9.60 L 102.29 -10.95 L 109.70 -10.95 L 109.70 -9.60 L 106.75 -9.60 L 106.75 -0.00 L 105.26 -0.00 Z M 118.68 0.15 Q 117.18 0.15 116.32 -0.72 Q 115.45 -1.59 115.45 -3.18 L 115.45 -7.79 Q 115.45 -9.36 116.32 -10.23 Q 117.18 -11.10 118.68 -11.10 Q 120.18 -11.10 121.05 -10.24 Q 121.92 -9.38 121.92 -7.79 L 121.92 -3.18 Q 121.92 -1.59 121.05 -0.72 Q 120.18 0.15 118.68 0.15 Z M 118.68 -1.17 Q 119.52 -1.17 119.98 -1.65 Q 120.44 -2.13 120.44 -3.03 L 120.44 -7.94 Q 120.44 -8.82 119.99 -9.30 Q 119.54 -9.78 118.68 -9.78 Q 117.83 -9.78 117.38 -9.30 Q 116.93 -8.82 116.93 -7.94 L 116.93 -3.03 Q 116.93 -2.13 117.39 -1.65 Q 117.85 -1.17 118.68 -1.17 Z M 128.16 -0.00 L 128.16 -10.95 L 130.08 -10.95 L 133.35 -1.71 Q 133.31 -2.10 133.27 -2.68 Q 133.23 -3.26 133.21 -3.88 Q 133.19 -4.50 133.19 -5.06 L 133.19 -10.95 L 134.60 -10.95 L 134.60 -0.00 L 132.66 -0.00 L 129.41 -9.24 Q 129.45 -8.85 129.48 -8.29 Q 129.51 -7.72 129.53 -7.11 Q 129.56 -6.49 129.56 -5.96 L 129.56 -0.00 L 128.16 -0.00 Z M 144.06 0.15 Q 142.56 0.15 141.69 -0.72 Q 140.82 -1.59 140.82 -3.18 L 140.82 -7.79 Q 140.82 -9.36 141.69 -10.23 Q 142.56 -11.10 144.06 -11.10 Q 145.56 -11.10 146.43 -10.24 Q 147.30 -9.38 147.30 -7.79 L 147.30 -3.18 Q 147.30 -1.59 146.43 -0.72 Q 145.56 0.15 144.06 0.15 Z M 144.06 -1.17 Q 144.90 -1.17 145.36 -1.65 Q 145.81 -2.13 145.81 -3.03 L 145.81 -7.94 Q 145.81 -8.82 145.36 -9.30 Q 144.91 -9.78 144.06 -9.78 Q 143.20 -9.78 142.75 -9.30 Q 142.30 -8.82 142.30 -7.94 L 142.30 -3.03 Q 142.30 -2.13 142.76 -1.65 Q 143.22 -1.17 144.06 -1.17 Z M 153.27 -0.00 L 153.27 -10.95 L 155.37 -10.95 L 156.72 -6.22 L 158.13 -10.95 L 160.24 -10.95 L 160.24 -0.00 L 158.82 -0.00 L 158.82 -5.02 Q 158.82 -5.82 158.85 -6.79 Q 158.88 -7.76 158.93 -8.72 Q 158.98 -9.69 159.04 -10.47 L 157.33 -4.86 L 156.07 -4.86 L 154.42 -10.34 Q 154.56 -9.24 154.62 -7.90 Q 154.68 -6.56 154.68 -5.02 L 154.68 -0.00 L 153.27 -0.00 Z M 169.43 0.15 Q 167.93 0.15 167.06 -0.72 Q 166.19 -1.59 166.19 -3.18 L 166.19 -7.79 Q 166.19 -9.36 167.06 -10.23 Q 167.93 -11.10 169.43 -11.10 Q 170.93 -11.10 171.80 -10.24 Q 172.67 -9.38 172.67 -7.79 L 172.67 -3.18 Q 172.67 -1.59 171.80 -0.72 Q 170.93 0.15 169.43 0.15 Z M 169.43 -1.17 Q 170.27 -1.17 170.73 -1.65 Q 171.19 -2.13 171.19 -3.03 L 171.19 -7.94 Q 171.19 -8.82 170.74 -9.30 Q 170.29 -9.78 169.43 -9.78 Q 168.58 -9.78 168.13 -9.30 Q 167.68 -8.82 167.68 -7.94 L 167.68 -3.03 Q 167.68 -2.13 168.14 -1.65 Q 168.59 -1.17 169.43 -1.17 Z M 182.12 0.15 Q 180.58 0.15 179.74 -0.71 Q 178.91 -1.56 178.91 -3.03 L 178.91 -10.95 L 180.40 -10.95 L 180.40 -3.03 Q 180.40 -2.16 180.82 -1.66 Q 181.25 -1.17 182.12 -1.17 Q 182.98 -1.17 183.42 -1.66 Q 183.86 -2.16 183.86 -3.03 L 183.86 -10.95 L 185.35 -10.95 L 185.35 -3.03 Q 185.35 -1.54 184.51 -0.70 Q 183.68 0.15 182.12 0.15 Z M 194.87 0.15 Q 193.25 0.15 192.29 -0.70 Q 191.33 -1.54 191.33 -3.03 L 192.81 -3.03 Q 192.81 -2.16 193.37 -1.66 Q 193.92 -1.17 194.87 -1.17 Q 195.77 -1.17 196.30 -1.67 Q 196.83 -2.17 196.83 -3.01 Q 196.83 -3.64 196.49 -4.12 Q 196.14 -4.59 195.51 -4.76 L 193.89 -5.19 Q 192.83 -5.49 192.20 -6.28 Q 191.58 -7.06 191.58 -8.14 Q 191.58 -9.03 191.98 -9.70 Q 192.38 -10.36 193.10 -10.73 Q 193.82 -11.10 194.76 -11.10 Q 195.72 -11.10 196.45 -10.73 Q 197.18 -10.36 197.58 -9.70 Q 197.99 -9.04 197.99 -8.17 L 196.52 -8.17 Q 196.52 -8.89 196.03 -9.34 Q 195.54 -9.79 194.76 -9.79 Q 193.98 -9.79 193.51 -9.34 Q 193.04 -8.89 193.04 -8.17 Q 193.04 -7.59 193.35 -7.19 Q 193.67 -6.79 194.24 -6.63 L 195.90 -6.18 Q 197.03 -5.88 197.66 -5.03 Q 198.29 -4.19 198.29 -3.01 Q 198.29 -2.06 197.87 -1.34 Q 197.45 -0.63 196.67 -0.24 Q 195.90 0.15 194.87 0.15 Z M 217.14 -0.00 L 217.14 -10.95 L 223.51 -10.95 L 223.51 -9.61 L 218.61 -9.61 L 218.61 -6.36 L 222.99 -6.36 L 222.99 -5.07 L 218.61 -5.07 L 218.61 -1.34 L 223.51 -1.34 L 223.51 -0.00 L 217.14 -0.00 Z M 228.93 -0.00 L 232.04 -5.56 L 229.09 -10.95 L 230.78 -10.95 L 232.41 -7.83 Q 232.54 -7.56 232.68 -7.27 Q 232.83 -6.99 232.90 -6.84 Q 232.98 -6.99 233.11 -7.27 Q 233.24 -7.56 233.38 -7.83 L 235.01 -10.95 L 236.65 -10.95 L 233.69 -5.64 L 236.81 -0.00 L 235.13 -0.00 L 233.33 -3.36 Q 233.20 -3.63 233.06 -3.92 Q 232.93 -4.21 232.86 -4.39 Q 232.78 -4.21 232.64 -3.92 Q 232.51 -3.63 232.36 -3.38 L 230.56 -0.00 L 228.93 -0.00 Z M 242.38 -0.00 L 242.38 -10.95 L 245.93 -10.95 Q 246.98 -10.95 247.75 -10.54 Q 248.51 -10.14 248.93 -9.41 Q 249.35 -8.69 249.35 -7.68 Q 249.35 -6.69 248.93 -5.96 Q 248.51 -5.24 247.74 -4.83 Q 246.97 -4.42 245.93 -4.42 L 243.86 -4.42 L 243.86 -0.00 L 242.38 -0.00 Z M 243.86 -5.74 L 245.93 -5.74 Q 246.80 -5.74 247.31 -6.28 Q 247.82 -6.81 247.82 -7.68 Q 247.82 -8.56 247.31 -9.10 Q 246.80 -9.63 245.93 -9.63 L 243.86 -9.63 L 243.86 -5.74 Z M 255.20 -0.00 L 255.20 -10.95 L 261.57 -10.95 L 261.57 -9.61 L 256.67 -9.61 L 256.67 -6.36 L 261.05 -6.36 L 261.05 -5.07 L 256.67 -5.07 L 256.67 -1.34 L 261.57 -1.34 L 261.57 -0.00 L 255.20 -0.00 Z M 267.77 -0.00 L 267.77 -10.95 L 271.16 -10.95 Q 272.16 -10.95 272.91 -10.55 Q 273.66 -10.16 274.08 -9.44 Q 274.50 -8.73 274.50 -7.77 Q 274.50 -6.66 273.94 -5.86 Q 273.38 -5.07 272.45 -4.74 L 274.65 -0.00 L 273.02 -0.00 L 270.93 -4.58 L 269.24 -4.58 L 269.24 -0.00 L 267.77 -0.00 Z M 269.24 -5.89 L 271.16 -5.89 Q 272.00 -5.89 272.48 -6.40 Q 272.97 -6.91 272.97 -7.76 Q 272.97 -8.61 272.48 -9.12 Q 271.98 -9.63 271.16 -9.63 L 269.24 -9.63 L 269.24 -5.89 Z M 280.63 -0.00 L 280.63 -1.35 L 282.87 -1.35 L 282.87 -9.60 L 280.63 -9.60 L 280.63 -10.95 L 286.60 -10.95 L 286.60 -9.60 L 284.37 -9.60 L 284.37 -1.35 L 286.60 -1.35 L 286.60 -0.00 L 280.63 -0.00 Z M 292.83 -0.00 L 292.83 -10.95 L 294.93 -10.95 L 296.28 -6.22 L 297.69 -10.95 L 299.80 -10.95 L 299.80 -0.00 L 298.38 -0.00 L 298.38 -5.02 Q 298.38 -5.82 298.41 -6.79 Q 298.44 -7.76 298.49 -8.72 Q 298.54 -9.69 298.60 -10.47 L 296.89 -4.86 L 295.63 -4.86 L 293.98 -10.34 Q 294.12 -9.24 294.18 -7.90 Q 294.24 -6.56 294.24 -5.02 L 294.24 -0.00 L 292.83 -0.00 Z M 305.95 -0.00 L 305.95 -10.95 L 312.32 -10.95 L 312.32 -9.61 L 307.42 -9.61 L 307.42 -6.36 L 311.80 -6.36 L 311.80 -5.07 L 307.42 -5.07 L 307.42 -1.34 L 312.32 -1.34 L 312.32 -0.00 L 305.95 -0.00 Z M 318.47 -0.00 L 318.47 -10.95 L 320.39 -10.95 L 323.66 -1.71 Q 323.62 -2.10 323.58 -2.68 Q 323.54 -3.26 323.52 -3.88 Q 323.49 -4.50 323.49 -5.06 L 323.49 -10.95 L 324.90 -10.95 L 324.90 -0.00 L 322.97 -0.00 L 319.72 -9.24 Q 319.76 -8.85 319.79 -8.29 Q 319.82 -7.72 319.84 -7.11 Q 319.87 -6.49 319.87 -5.96 L 319.87 -0.00 L 318.47 -0.00 Z M 333.63 -0.00 L 333.63 -9.60 L 330.66 -9.60 L 330.66 -10.95 L 338.07 -10.95 L 338.07 -9.60 L 335.12 -9.60 L 335.12 -0.00 L 333.63 -0.00 Z M 343.24 -0.00 L 346.08 -10.95 L 348.04 -10.95 L 350.87 -0.00 L 349.35 -0.00 L 348.66 -2.85 L 345.45 -2.85 L 344.76 -0.00 L 343.24 -0.00 Z M 345.73 -4.08 L 348.36 -4.08 L 347.57 -7.35 Q 347.35 -8.25 347.22 -8.88 Q 347.08 -9.51 347.05 -9.74 Q 347.02 -9.51 346.89 -8.88 Q 346.75 -8.25 346.54 -7.36 L 345.73 -4.08 Z M 359.01 -0.00 L 359.01 -9.60 L 356.04 -9.60 L 356.04 -10.95 L 363.45 -10.95 L 363.45 -9.60 L 360.49 -9.60 L 360.49 -0.00 L 359.01 -0.00 Z M 369.44 -0.00 L 369.44 -1.35 L 371.68 -1.35 L 371.68 -9.60 L 369.44 -9.60 L 369.44 -10.95 L 375.41 -10.95 L 375.41 -9.60 L 373.18 -9.60 L 373.18 -1.35 L 375.41 -1.35 L 375.41 -0.00 L 369.44 -0.00 Z M 385.12 0.15 Q 383.62 0.15 382.75 -0.72 Q 381.88 -1.59 381.88 -3.18 L 381.88 -7.79 Q 381.88 -9.36 382.75 -10.23 Q 383.62 -11.10 385.12 -11.10 Q 386.62 -11.10 387.49 -10.24 Q 388.35 -9.38 388.35 -7.79 L 388.35 -3.18 Q 388.35 -1.59 387.49 -0.72 Q 386.62 0.15 385.12 0.15 Z M 385.12 -1.17 Q 385.95 -1.17 386.41 -1.65 Q 386.87 -2.13 386.87 -3.03 L 386.87 -7.94 Q 386.87 -8.82 386.42 -9.30 Q 385.97 -9.78 385.12 -9.78 Q 384.26 -9.78 383.81 -9.30 Q 383.36 -8.82 383.36 -7.94 L 383.36 -3.03 Q 383.36 -2.13 383.82 -1.65 Q 384.28 -1.17 385.12 -1.17 Z M 394.59 -0.00 L 394.59 -10.95 L 396.51 -10.95 L 399.78 -1.71 Q 399.74 -2.10 399.70 -2.68 Q 399.66 -3.26 399.64 -3.88 Q 399.62 -4.50 399.62 -5.06 L 399.62 -10.95 L 401.03 -10.95 L 401.03 -0.00 L 399.09 -0.00 L 395.84 -9.24 Q 395.88 -8.85 395.91 -8.29 Q 395.94 -7.72 395.97 -7.11 Q 395.99 -6.49 395.99 -5.96 L 395.99 -0.00 L 394.59 -0.00 Z" fill="#8890A0"/>
  </g>
</svg>